<svg width="85" height="85" viewBox="0 0 85 85" fill="none" xmlns="http://www.w3.org/2000/svg">
<g clip-path="url(#clip0_3_5)">
<circle cx="42.5" cy="42.5" r="42.5" fill="#7A96FF"/>
<path d="M13.66 49V35H16.9V46.36H23.92V49H13.66ZM32.3155 49.24C31.2088 49.24 30.1821 49.06 29.2355 48.7C28.3021 48.34 27.4888 47.8333 26.7955 47.18C26.1155 46.5267 25.5821 45.76 25.1955 44.88C24.8221 44 24.6355 43.04 24.6355 42C24.6355 40.96 24.8221 40 25.1955 39.12C25.5821 38.24 26.1221 37.4733 26.8155 36.82C27.5088 36.1667 28.3221 35.66 29.2555 35.3C30.1888 34.94 31.2021 34.76 32.2955 34.76C33.4021 34.76 34.4155 34.94 35.3355 35.3C36.2688 35.66 37.0755 36.1667 37.7555 36.82C38.4488 37.4733 38.9888 38.24 39.3755 39.12C39.7621 39.9867 39.9555 40.9467 39.9555 42C39.9555 43.04 39.7621 44.0067 39.3755 44.9C38.9888 45.78 38.4488 46.5467 37.7555 47.2C37.0755 47.84 36.2688 48.34 35.3355 48.7C34.4155 49.06 33.4088 49.24 32.3155 49.24ZM32.2955 46.48C32.9221 46.48 33.4955 46.3733 34.0155 46.16C34.5488 45.9467 35.0155 45.64 35.4155 45.24C35.8155 44.84 36.1221 44.3667 36.3355 43.82C36.5621 43.2733 36.6755 42.6667 36.6755 42C36.6755 41.3333 36.5621 40.7267 36.3355 40.18C36.1221 39.6333 35.8155 39.16 35.4155 38.76C35.0288 38.36 34.5688 38.0533 34.0355 37.84C33.5021 37.6267 32.9221 37.52 32.2955 37.52C31.6688 37.52 31.0888 37.6267 30.5555 37.84C30.0355 38.0533 29.5755 38.36 29.1755 38.76C28.7755 39.16 28.4621 39.6333 28.2355 40.18C28.0221 40.7267 27.9155 41.3333 27.9155 42C27.9155 42.6533 28.0221 43.26 28.2355 43.82C28.4621 44.3667 28.7688 44.84 29.1555 45.24C29.5555 45.64 30.0221 45.9467 30.5555 46.16C31.0888 46.3733 31.6688 46.48 32.2955 46.48ZM49.1505 49.24C48.0438 49.24 47.0238 49.0667 46.0905 48.72C45.1705 48.36 44.3638 47.8533 43.6705 47.2C42.9905 46.5467 42.4571 45.78 42.0705 44.9C41.6971 44.02 41.5105 43.0533 41.5105 42C41.5105 40.9467 41.6971 39.98 42.0705 39.1C42.4571 38.22 42.9971 37.4533 43.6905 36.8C44.3838 36.1467 45.1971 35.6467 46.1305 35.3C47.0638 34.94 48.0905 34.76 49.2105 34.76C50.4505 34.76 51.5638 34.9667 52.5505 35.38C53.5505 35.7933 54.3905 36.3933 55.0705 37.18L52.9905 39.1C52.4838 38.5667 51.9305 38.1733 51.3305 37.92C50.7305 37.6533 50.0771 37.52 49.3705 37.52C48.6905 37.52 48.0705 37.6267 47.5105 37.84C46.9505 38.0533 46.4638 38.36 46.0505 38.76C45.6505 39.16 45.3371 39.6333 45.1105 40.18C44.8971 40.7267 44.7905 41.3333 44.7905 42C44.7905 42.6533 44.8971 43.2533 45.1105 43.8C45.3371 44.3467 45.6505 44.8267 46.0505 45.24C46.4638 45.64 46.9438 45.9467 47.4905 46.16C48.0505 46.3733 48.6638 46.48 49.3305 46.48C49.9705 46.48 50.5905 46.38 51.1905 46.18C51.8038 45.9667 52.3971 45.6133 52.9705 45.12L54.8105 47.46C54.0505 48.0333 53.1638 48.4733 52.1505 48.78C51.1505 49.0867 50.1505 49.24 49.1505 49.24ZM51.8505 47.04V41.78H54.8105V47.46L51.8505 47.04ZM64.6202 49.24C63.5135 49.24 62.4868 49.06 61.5402 48.7C60.6068 48.34 59.7935 47.8333 59.1002 47.18C58.4202 46.5267 57.8868 45.76 57.5002 44.88C57.1268 44 56.9402 43.04 56.9402 42C56.9402 40.96 57.1268 40 57.5002 39.12C57.8868 38.24 58.4268 37.4733 59.1202 36.82C59.8135 36.1667 60.6268 35.66 61.5602 35.3C62.4935 34.94 63.5068 34.76 64.6002 34.76C65.7068 34.76 66.7202 34.94 67.6402 35.3C68.5735 35.66 69.3802 36.1667 70.0602 36.82C70.7535 37.4733 71.2935 38.24 71.6802 39.12C72.0668 39.9867 72.2602 40.9467 72.2602 42C72.2602 43.04 72.0668 44.0067 71.6802 44.9C71.2935 45.78 70.7535 46.5467 70.0602 47.2C69.3802 47.84 68.5735 48.34 67.6402 48.7C66.7202 49.06 65.7135 49.24 64.6202 49.24ZM64.6002 46.48C65.2268 46.48 65.8002 46.3733 66.3202 46.16C66.8535 45.9467 67.3202 45.64 67.7202 45.24C68.1202 44.84 68.4268 44.3667 68.6402 43.82C68.8668 43.2733 68.9802 42.6667 68.9802 42C68.9802 41.3333 68.8668 40.7267 68.6402 40.18C68.4268 39.6333 68.1202 39.16 67.7202 38.76C67.3335 38.36 66.8735 38.0533 66.3402 37.84C65.8068 37.6267 65.2268 37.52 64.6002 37.52C63.9735 37.52 63.3935 37.6267 62.8602 37.84C62.3402 38.0533 61.8802 38.36 61.4802 38.76C61.0802 39.16 60.7668 39.6333 60.5402 40.18C60.3268 40.7267 60.2202 41.3333 60.2202 42C60.2202 42.6533 60.3268 43.26 60.5402 43.82C60.7668 44.3667 61.0735 44.84 61.4602 45.24C61.8602 45.64 62.3268 45.9467 62.8602 46.16C63.3935 46.3733 63.9735 46.48 64.6002 46.48Z" fill="white"/>
</g>
<defs>
<clipPath id="clip0_3_5">
<rect width="85" height="85" fill="white"/>
</clipPath>
</defs>
</svg>
